<?xml version="1.0" standalone="no"?>
<!DOCTYPE svg PUBLIC "-//W3C//DTD SVG 20010904//EN"
 "http://www.w3.org/TR/2001/REC-SVG-20010904/DTD/svg10.dtd">
<svg version="1.0" xmlns="http://www.w3.org/2000/svg"
 width="512.000000pt" height="512.000000pt" viewBox="0 0 512.000000 512.000000"
 preserveAspectRatio="xMidYMid meet">

<g transform="translate(0.000000,512.000000) scale(0.100000,-0.100000)"
fill="#000000" stroke="none">
<path d="M1576 5104 c-141 -34 -282 -144 -350 -273 -70 -134 -66 27 -66 -2271
0 -2297 -4 -2137 66 -2270 73 -140 229 -254 381 -279 48 -8 332 -11 988 -9
l920 3 65 23 c179 63 322 223 359 400 16 75 16 4189 0 4264 -37 177 -174 332
-352 397 l-72 26 -940 2 c-786 1 -950 -1 -999 -13z m1908 -229 c70 -18 137
-63 177 -118 63 -87 59 59 59 -2197 0 -2256 4 -2110 -59 -2197 -17 -23 -50
-55 -75 -72 -91 -63 -72 -62 -1057 -59 l-894 3 -56 26 c-71 33 -125 87 -158
158 l-26 56 0 2085 0 2085 26 56 c43 91 121 156 216 178 21 5 432 9 913 10
751 1 884 -1 934 -14z"/>
<path d="M2138 4630 c-57 -45 -61 -125 -7 -176 l30 -29 380 -3 c419 -3 433 -1
464 59 26 49 19 97 -19 135 l-34 34 -395 0 c-377 0 -395 -1 -419 -20z"/>
<path d="M2465 910 c-111 -53 -163 -162 -131 -272 31 -105 113 -168 219 -168
124 0 216 80 233 203 24 170 -167 311 -321 237z"/>
</g>
</svg>
