<?xml version="1.0" standalone="no"?>
<!DOCTYPE svg PUBLIC "-//W3C//DTD SVG 20010904//EN"
 "http://www.w3.org/TR/2001/REC-SVG-20010904/DTD/svg10.dtd">
<svg version="1.0" xmlns="http://www.w3.org/2000/svg"
 width="512.000000pt" height="512.000000pt" viewBox="0 0 512.000000 512.000000"
 preserveAspectRatio="xMidYMid meet">

<g transform="translate(0.000000,512.000000) scale(0.100000,-0.100000)"
fill="#000000" stroke="none">
<path d="M1105 5010 c-93 -24 -138 -44 -206 -90 -117 -80 -216 -219 -256 -360
-17 -62 -18 -153 -18 -2000 0 -1847 1 -1938 18 -2000 58 -203 211 -366 412
-437 l80 -28 1420 0 1420 0 75 23 c208 65 379 248 431 462 21 82 21 3878 0
3960 -51 210 -214 389 -418 458 l-78 27 -1405 2 c-1345 2 -1408 1 -1475 -17z
m2856 -130 c172 -33 328 -177 375 -347 18 -65 19 -143 19 -1973 0 -1830 -1
-1908 -19 -1973 -47 -170 -203 -314 -375 -347 -35 -6 -527 -10 -1405 -10
-1469 0 -1414 -2 -1528 56 -110 56 -211 180 -244 301 -18 65 -19 144 -19 1988
l0 1920 23 59 c62 164 191 282 350 320 47 12 292 14 1413 15 884 1 1375 -3
1410 -9z"/>
<path d="M2535 752 c-87 -21 -112 -129 -44 -186 86 -72 212 20 169 124 -19 45
-77 74 -125 62z"/>
</g>
</svg>
